<svg width="40" height="40" viewBox="0 0 40 40" fill="none" xmlns="http://www.w3.org/2000/svg">
<path d="M3.33333 35C3.33309 32.8436 3.85585 30.7194 4.85679 28.8094C5.85773 26.8994 7.30697 25.2607 9.08025 24.0338C10.8535 22.8069 12.8979 22.0284 15.0381 21.765C17.1783 21.5016 19.3505 21.7613 21.3683 22.5216" stroke="black" stroke-width="2" stroke-linecap="round" stroke-linejoin="round"/>
<path d="M35.63 27.71C36.2939 27.046 36.6669 26.1456 36.6669 25.2066C36.6669 24.2677 36.2939 23.3672 35.63 22.7033C34.9661 22.0394 34.0656 21.6664 33.1267 21.6664C32.1877 21.6664 31.2873 22.0394 30.6233 22.7033L23.94 29.39C23.5437 29.786 23.2537 30.2755 23.0967 30.8133L21.7017 35.5966C21.6598 35.74 21.6573 35.8921 21.6944 36.0368C21.7315 36.1815 21.8068 36.3136 21.9124 36.4192C22.018 36.5249 22.1501 36.6001 22.2949 36.6372C22.4396 36.6743 22.5916 36.6718 22.735 36.63L27.5183 35.235C28.0561 35.0779 28.5456 34.7879 28.9417 34.3916L35.63 27.71Z" stroke="black" stroke-width="2" stroke-linecap="round" stroke-linejoin="round"/>
<path d="M16.6667 21.6667C21.269 21.6667 25 17.9357 25 13.3333C25 8.73096 21.269 5 16.6667 5C12.0643 5 8.33333 8.73096 8.33333 13.3333C8.33333 17.9357 12.0643 21.6667 16.6667 21.6667Z" stroke="black" stroke-width="2" stroke-linecap="round" stroke-linejoin="round"/>
</svg>
